<?xml version="1.0" encoding="utf-8"?>
<!-- Generator: Adobe Illustrator 24.3.0, SVG Export Plug-In . SVG Version: 6.00 Build 0)  -->
<svg version="1.1" id="Layer_1" xmlns="http://www.w3.org/2000/svg" xmlns:xlink="http://www.w3.org/1999/xlink" x="0px" y="0px"
	 viewBox="0 0 492 314" style="enable-background:new 0 0 492 314;" xml:space="preserve">
<path d="M463.6,81.9c3.4-21.8-34.7-66.6-34.7-66.6c-33.6-26.3-63.8-3.9-63.8-3.9l-2.8,2.8l-227.9-1.7l-2.8-2.2
	c-9-12.3-31.9-9.5-31.9-9.5S80.5,0.1,66,15.3C51.4,30.9,40.8,59.5,40.8,59.5c0,0-59.4,171.9-34.2,224c25.2,52.1,72.2,20.7,72.2,20.7
	c32.5-28,52.6-105.3,52.6-105.3c9-10.6,15.1-8.4,15.1-8.4c30.2,19,58.2-1.7,58.2-1.7l95.8,0.6c26.9,17.9,53.2,3.4,53.2,3.4
	c10.6-5.6,12.9,12.3,12.9,12.3c22.4,84,49.3,98,49.3,98c72.2,33.6,75.6-52.6,75.6-52.6C493.2,167.6,463.6,81.9,463.6,81.9
	L463.6,81.9z M86.7,42.7c0.6-4.5,4.5-5.6,4.5-5.6s14.6-2.8,20.2,0c5.6,2.2,4.5,6.7,4.5,6.7v16.8l-14,9.5l-12.9-9.5l-2.2-2.2
	L86.7,42.7L86.7,42.7z M62,87.5c-5-3.4-3.4-6.2-3.4-6.2s-0.6-10.1,0-14.6c0.6-4.5,4.5-5,4.5-5l17.9,0l11.8,14l-9.5,11.2L62,87.5z
	 M116.4,108.2c0,0-2.2,6.7-7.3,7.3H93.4c0,0-7.8-2.2-6.7-9.5V93.7l15.1-12.3l14.6,13.4V108.2z M142.7,82.5c0,0-0.6,5.6-5.6,6.2
	c-5,0.6-16.8,0-16.8,0L108,75.2l14-10.6h13.4c0,0,6.7,0.6,6.7,5.6C143.2,75.2,142.7,82.5,142.7,82.5L142.7,82.5z M177.4,165.9
	c-17.4,0-31.4-15.7-30.2-32.5c1.1-15.7,14.6-28,30.8-27.4c16.2,0.6,29.7,14,29.1,30.2C207.1,153,193.1,165.9,177.4,165.9
	L177.4,165.9z M404.2,29.8c9-1.1,17.9,5.6,18.5,14.6c0.6,8.4-7.3,15.7-15.7,15.7c-8.4,0-15.7-6.7-15.7-15.1
	C390.8,37.7,396.9,30.9,404.2,29.8L404.2,29.8z M334.2,165.9c-17.4,0-32.5-15.7-30.8-33c1.7-14.6,15.1-25.8,29.1-26.3
	c15.7-0.6,31.4,12.3,31.4,29.1C364.4,153,349.9,165.9,334.2,165.9L334.2,165.9z M374.5,93.7c-9-0.6-16.2-7.8-15.7-16.2
	c0.6-7.8,7.8-14,15.1-14c8.4-0.6,17.4,6.7,16.8,15.7C390.8,86.9,383.5,94.2,374.5,93.7L374.5,93.7z M407,125.6
	c-8.4-0.6-15.7-7.8-15.1-16.2c0.6-7.3,6.7-13.4,14.6-14.6c9.5-0.6,17.4,7.3,16.8,15.7C423.2,119.4,416,126.1,407,125.6L407,125.6z
	 M436.1,94.2c-9,1.1-16.8-6.7-16.8-15.1c-0.6-7.8,5.6-15.1,13.4-16.2c8.4-1.1,16.2,5.6,17.4,14C450.7,85.3,444.5,93.7,436.1,94.2
	L436.1,94.2z"/>
</svg>
