<?xml version="1.0" encoding="utf-8"?>
<!-- Generator: Adobe Illustrator 24.3.0, SVG Export Plug-In . SVG Version: 6.00 Build 0)  -->
<svg version="1.1" id="Layer_1" xmlns="http://www.w3.org/2000/svg" xmlns:xlink="http://www.w3.org/1999/xlink" x="0px" y="0px"
	 viewBox="0 0 700 466" style="enable-background:new 0 0 700 466;" xml:space="preserve">
<path d="M612.4,160.7h0.4c6.2-0.2,12-2.7,16.4-7c4.4-4.3,7-10.1,7.3-16.3c0.1-6.2-2.3-12.1-6.7-16.5c-4.4-4.5-10.4-7.1-16.7-7.2
	h-0.3c-6.2-0.1-12.2,2.3-16.6,6.6c-4.4,4.3-7,10.3-7,16.5c-0.1,6.2,2.4,12.2,6.7,16.7C600.2,158.1,606.2,160.6,612.4,160.7
	L612.4,160.7z M612.8,119.4h0.2c4.8,0.1,9.4,2,12.7,5.5c3.3,3.3,5.1,7.8,5.1,12.5c-0.2,4.7-2.2,9.2-5.6,12.5
	c-3.4,3.3-8,5.2-12.7,5.2c-4.8-0.1-9.3-2.1-12.6-5.5c-3.3-3.4-5.1-8-5.1-12.8c0.1-4.7,2-9.2,5.4-12.5
	C603.5,121.1,608.1,119.3,612.8,119.4L612.8,119.4z M567,115.1c6.2-0.1,12.2-2.6,16.6-7c4.4-4.4,7-10.3,7.2-16.6
	c0-6.2-2.5-12.1-6.9-16.5c-4.4-4.5-10.5-7.1-16.8-7.1c-6.2,0-12.2,2.4-16.7,6.8c-4.4,4.3-6.9,10.3-6.9,16.5
	c-0.1,6.3,2.4,12.3,6.8,16.8C554.8,112.5,560.8,115.1,567,115.1L567,115.1z M554.4,78.9c3.4-3.3,8-5.2,12.7-5.2
	c4.8,0,9.5,2,12.8,5.5c3.3,3.3,5.2,7.7,5.2,12.4c-0.1,4.7-2.1,9.2-5.4,12.6c-3.4,3.3-7.9,5.3-12.6,5.4c-4.8,0-9.3-2-12.6-5.3
	c-3.3-3.4-5.2-7.9-5.2-12.7C549.2,86.8,551,82.2,554.4,78.9L554.4,78.9z M567.3,159.3h-0.2c-6.2-0.1-12.2,2.3-16.6,6.6
	c-4.4,4.3-7,10.3-7,16.5c-0.1,6.3,2.4,12.3,6.7,16.8c4.4,4.5,10.3,7.1,16.6,7.2h0.4c6.1-0.1,11.9-2.5,16.3-6.8
	c4.5-4.3,7.1-10.2,7.4-16.5c0.1-6.2-2.4-12.1-6.7-16.5C579.8,162.1,573.7,159.5,567.3,159.3L567.3,159.3z M579.6,195.5
	c-3.3,3.4-7.9,5.3-12.6,5.2c-4.8-0.1-9.3-2.1-12.6-5.5c-3.3-3.4-5.1-8-5.1-12.8c0-4.7,2-9.2,5.4-12.5c3.4-3.3,7.9-5.1,12.6-5h0.1
	c4.8,0.1,9.4,2,12.8,5.5c3.3,3.3,5.1,7.8,5.1,12.5C585.1,187.7,583,192.2,579.6,195.5L579.6,195.5z M521.3,160.7h0.2
	c6.2-0.1,12.1-2.7,16.5-7c4.4-4.3,7-10.2,7.2-16.4c0-6.2-2.4-12.1-6.8-16.5c-4.4-4.5-10.4-7.1-16.7-7.2h-0.1
	c-8.4-0.1-16.2,4.4-20.4,11.6c-4.2,7.2-4.3,16.2-0.1,23.5C505.1,156.2,512.9,160.7,521.3,160.7L521.3,160.7z M521.5,119.3
	c4.8,0.1,9.4,2,12.7,5.5c3.3,3.3,5.2,7.8,5.2,12.5c-0.2,4.7-2.1,9.2-5.5,12.5c-3.4,3.3-7.9,5.2-12.6,5.3h-0.1
	c-4.7-0.1-9.2-2.1-12.6-5.5c-3.3-3.4-5.2-7.9-5.2-12.7c0-4.8,2-9.3,5.4-12.6C512.2,121,516.8,119.2,521.5,119.3L521.5,119.3z
	 M52.2,464.6c2.9,1,6,1.5,9.1,1.6c4,0.3,7.8-1.7,9.8-5c1-1.8,2.1-3.8,3.1-5.8l0,0c5.4,1.2,10.9,1.4,16.3,0.8
	c13.3-2.4,26.5-26.3,30.3-36.3c7.9-20.6,14.3-41.7,22.2-62.3c7.1-18.6,16.2-36.3,30.9-50.3c11.9-11.2,25.5-15.4,41.9-11.3h0
	c8.8,2.2,17.8,3.3,26.9,3.4c71.6,0.3,143.2,0.3,214.8,0c9.2-0.2,18.4-1.3,27.4-3.5c15.8-3.7,29.6-0.3,40.6,11
	c7.3,7.6,13.8,16,19.2,25.1c14.3,23.8,20.9,50.7,30.4,76.4c5.3,14.2,20,42,29.7,45.8c7.5,2.9,15.4,2.1,22.4,1.2
	c1,2.1,2.1,4.1,3.2,5.9l0,0c2,3.4,5.9,5.4,9.8,5.1c3.1-0.1,6.1-0.7,9-1.6c26.6-7.9,34.4-25.7,40.6-44.8c4.3-13.4,14-51.5,9.7-117
	c-5.6-86-40.5-203.8-69.5-259.8c-5.5-10.2-13.3-19-22.6-25.8C583.6,1.6,541.9-0.2,523.3,1.1h-1.2c-7.5,0-14.8,2.8-20.3,8
	C401.5-2.1,300.3-2.1,200,9c-5.5-5.2-12.8-8-20.3-7.9h-1.1c-18.7-1.3-60.3,0.5-84.2,16c-9.4,6.8-17.2,15.6-22.9,25.8
	C42.5,99,7.6,216.8,2,302.8c-4.3,65.5,5.4,103.7,9.7,117C17.9,438.9,25.6,456.6,52.2,464.6L52.2,464.6z M238.3,266.5
	c-10.8,0-21.1-4.3-28.7-11.8c-7.6-7.6-12-17.8-12.1-28.6c0.3-14.4,8.1-27.5,20.5-34.7s27.8-7.2,40.3-0.2c12.5,7,20.5,20.1,20.9,34.4
	c0,10.8-4.4,21.2-12,28.9C259.5,262.2,249.2,266.5,238.3,266.5L238.3,266.5z M462.3,266.5c-10.7-0.1-20.9-4.4-28.4-12
	c-7.5-7.6-11.7-17.9-11.7-28.6c0-10.7,4.3-20.9,11.9-28.5c7.6-7.6,17.8-11.8,28.5-11.8c10.7,0,21,4.2,28.5,11.8
	c7.6,7.5,11.9,17.8,11.9,28.5c0,10.8-4.3,21.1-12,28.7C483.4,262.2,473.1,266.5,462.3,266.5L462.3,266.5z M522.8,18h1.6
	c23.5-1.5,57.3,2.7,73.9,13.4l0,0c7,5.2,12.9,11.8,17.1,19.4c27.6,53.4,62.2,170.5,67.6,253.1c4.2,64.4-5.7,101-8.9,110.7
	c-6.2,19.2-11.9,28.6-29.3,33.8l-1.5,0.4c-8.2-15.8-16.1-39.5-21.9-57.1c-2.5-7.4-4.7-14-6.6-19.2c-27.3-73.6-58.9-150.5-117.8-211
	c-6.5-6.7-13.7-17.3-11.5-29.7c4.4-23.1,9.6-46.5,14.7-69.1c1.6-7.2,3.2-14.4,4.8-21.6C509.8,18.5,517.6,18.2,522.8,18L522.8,18z
	 M492.4,19.4c-5.9,12.1-8.4,24.7-10.7,37.1c-1,5.4-2,10.4-3.2,15.4c-1.9,7.8-3.4,15.7-4.8,23.4c-1.2,6.6-2.5,13.5-4.1,20.1
	c-4.4,18.8-12.6,28.9-26.6,32.6v0c-5.2,1.2-10.5,1.7-15.8,1.5h-55.2c-32.7,0-66.4,0-99.6,0.2c-23.3,0.2-36.7-11.3-41.7-35.5
	c-5.2-24.9-10.7-51.4-16.7-77.9l0,0c-1.4-5.5-3.2-10.8-5.5-16l-0.3-0.8h0C302.6,9.4,397.9,9.4,492.4,19.4L492.4,19.4z M18.9,303.9
	c5.5-82.6,40-199.7,67.6-253.2h0c4.2-7.6,10.1-14.3,17.1-19.4c14.3-9.3,41.6-13.7,63.9-13.7c3.5,0,6.8,0,9.9,0.3h1.6
	c5.2,0.2,13,0.5,18,23.1c1.6,7.2,3.2,14.4,4.8,21.6c5,22.6,10.3,46,14.7,69.1c2.3,12.4-5,23-11.6,29.7
	c-58.9,60.4-90.5,137.4-117.8,211c-1.9,5.1-4.1,11.7-6.6,19.2c-5.9,17.6-13.7,41.2-21.9,57.1l-1.5-0.4
	c-17.4-5.2-23.1-14.6-29.3-33.8C24.6,404.9,14.6,368.3,18.9,303.9L18.9,303.9z M139.6,134.1c-2,3.4-2.1,7.6-0.2,11.1
	c1.7,2.7,14.9,15.7,28,15.9h5.4h0c1.7,0,3.5-0.1,5.2-0.2c8.1-0.9,11.7-5.1,12.2-14.3v-4.1v-2.7l0-1.9v-6.7c0.1-3.3-1.1-6.6-3.4-9
	c-2.3-2.4-5.5-3.8-8.8-3.8c-3.9-0.2-7.7-0.2-11.6,0.2C154.3,119.8,145.6,124.9,139.6,134.1L139.6,134.1z M166.9,124.1
	c2-0.2,4.1-0.3,6.4-0.3h4.3c4.4,0.2,6.6,2.7,6.8,7.4v6.4v2.2v2.7v3.6c-0.4,7.1-2.5,8.5-7.2,9h0c-2.9,0.2-5.7,0.2-8.6,0h-1.3
	c-10.4-0.2-21.9-11.4-23.3-13.3l0,0c-0.7-1.6-0.6-3.5,0.2-5C149.4,129.4,156.6,125.2,166.9,124.1L166.9,124.1z M124.9,131
	c1.8,1.1,3.9,1.6,6,1.6c1.8,0.1,3.6-0.4,5.1-1.3c2.6-1.6,15.8-14.9,15.8-27.9V102c0.2-3.1,0.2-6.2,0-9.2
	c-0.9-8.2-5.1-11.7-14.3-12.3h-4.1h-4.9h-6.7v0c-3.3-0.2-6.6,1-9,3.3c-2.4,2.3-3.8,5.5-3.8,8.8c-0.2,3.9-0.1,7.7,0.2,11.6
	C110.7,116.3,115.7,125,124.9,131L124.9,131z M114.7,93c-0.1-1.9,0.7-3.8,2.1-5.1c1.4-1.3,3.3-1.9,5.3-1.7h3.4h8h3.6
	c7.1,0.4,8.5,2.6,9,7.2c0.2,2.9,0.2,5.7,0,8.6v1.3c-0.2,10.4-11.4,22.1-13.3,23.3v0c-1.6,0.7-3.5,0.6-5-0.2
	c-7.8-5-11.9-12.2-13-22.6h0C114.4,100.2,114.4,96.6,114.7,93L114.7,93z M71.6,139.4v2.1v6.7c-0.2,3.3,1.1,6.6,3.3,9
	c2.3,2.4,5.5,3.8,8.8,3.8h4.6c2.3,0,4.7-0.1,7-0.4c10.9-0.7,20.7-6.4,26.7-15.5c2-3.4,2.1-7.6,0.2-11.1c-1.7-2.7-14.9-15.7-28-15.9
	h-1.2c-3.1-0.1-6.2-0.1-9.3,0.2c-8.2,0.9-11.7,5.1-12.2,14.3v4.1C71.6,137.7,71.6,138.6,71.6,139.4L71.6,139.4z M84.4,124.1
	c1.3-0.1,2.9-0.2,4.6-0.2h5.3c10.4,0.2,21.9,11.4,23.3,13.3h0c0.7,1.6,0.6,3.5-0.2,5c-5,7.7-12.2,11.9-22.6,13h0
	c-3.6,0.3-7.1,0.4-10.7,0.2c-1.9,0.1-3.8-0.7-5.1-2.1c-1.3-1.4-1.9-3.3-1.7-5.2v-6.4v-2.2v-2.7v-3.6
	C77.5,125.9,79.7,124.5,84.4,124.1L84.4,124.1z M136.5,148.8c-3.4-2-7.6-2.1-11.1-0.2c-2.7,1.7-15.7,14.9-15.9,27.9v1.2h0
	c-0.1,3.1-0.1,6.2,0.2,9.4c0.9,8.2,5.1,11.7,14.3,12.3h8.7h6.7c3.3,0.2,6.6-1,9-3.3c2.4-2.3,3.8-5.5,3.8-8.8c0.2-4,0.1-8-0.3-12
	c-0.6-10.8-6.3-20.7-15.4-26.7L136.5,148.8z M146.6,186.8c0.1,1.9-0.7,3.8-2.1,5.1c-1.4,1.3-3.3,1.9-5.2,1.7h-6.4h-4.9h-3.6
	c-7.1-0.4-8.5-2.6-9-7.2c-0.2-2.9-0.3-5.8-0.1-8.7v-1.4c0.2-10.4,11.4-22.1,13.3-23.3h0c0.7-0.3,1.4-0.5,2.1-0.4c1,0,2,0.2,2.9,0.7
	c7.8,5,11.9,12.2,13,22.6v0c0.3,3.6,0.3,7.2,0,10.8L146.6,186.8z"/>
</svg>
